<svg viewBox="163 30 927 982" preserveAspectRatio="xMinYMid meet">
    <line x1="400" y1="400" x2="400" y2="600" stroke="black"></line>
    <line x1="400" y1="400" x2="600" y2="400" stroke="black"></line>
    <line x1="600" y1="600" x2="400" y2="600" stroke="black"></line>
    <line x1="600" y1="600" x2="600" y2="400" stroke="black"></line>
    <circle cx="587.4531119282377" cy="585.7216251252723" r="10"></circle>
    <circle cx="463.42536465706627" cy="547.058892257981" r="10"></circle>
    <circle cx="435.28084061797796" cy="450.45185076205615" r="10"></circle>
    <circle cx="584.2622692510139" cy="553.6902307669712" r="10"></circle>
    <circle cx="529.249581207901" cy="579.709698471919" r="10"></circle>
    <circle cx="484.74563186679467" cy="467.2929020239413" r="10"></circle>
    <circle cx="510.64366868044607" cy="567.5977427735367" r="10"></circle>
    <circle cx="448.37497560593897" cy="415.7294426383295" r="10"></circle>
    <circle cx="575.0316769294908" cy="473.3610573218531" r="10"></circle>
    <circle cx="574.5483717051266" cy="527.3197281844559" r="10"></circle>
    <circle cx="423.5289524668764" cy="490.399626841491" r="10"></circle>
    <circle cx="431.65090076340846" cy="537.8311874919203" r="10"></circle>
    <circle cx="549.8024907092661" cy="418.91204041704833" r="10"></circle>
    <circle cx="471.2288842427609" cy="483.09242804317404" r="10"></circle>
    <circle cx="424.8958839650155" cy="428.7762480911455" r="10"></circle>
</svg>