<svg viewBox="163 30 927 982" preserveAspectRatio="xMinYMid meet">
    <line x1="400" y1="400" x2="400" y2="600" stroke="black"></line>
    <line x1="400" y1="400" x2="600" y2="400" stroke="black"></line>
    <line x1="600" y1="600" x2="400" y2="600" stroke="black"></line>
    <line x1="600" y1="600" x2="600" y2="400" stroke="black"></line>
    <circle cx="587.289751419708" cy="577.6694205805067" r="10"></circle>
    <circle cx="460.5680583733476" cy="555.4501797653816" r="10"></circle>
    <circle cx="434.91175797154875" cy="464.31044773696425" r="10"></circle>
    <circle cx="573.8373824801257" cy="556.5257394253268" r="10"></circle>
    <circle cx="518.1848055015566" cy="589.0818065892587" r="10"></circle>
    <circle cx="495.6499201258649" cy="451.3185563158768" r="10"></circle>
    <circle cx="498.77677472661145" cy="563.1054259198453" r="10"></circle>
    <circle cx="467.31307860963346" cy="417.21799016752226" r="10"></circle>
    <circle cx="587.9749825434891" cy="461.5979377419258" r="10"></circle>
    <circle cx="588.271947847573" cy="533.4309850862181" r="10"></circle>
    <circle cx="421.9831812024506" cy="506.6686876022021" r="10"></circle>
    <circle cx="411.34095373730844" cy="562.7949749693445" r="10"></circle>
    <circle cx="549.4437329980799" cy="421.08484349907485" r="10"></circle>
    <circle cx="477.4221674119963" cy="486.31557522415443" r="10"></circle>
    <circle cx="436.4309288408765" cy="427.7378625509769" r="10"></circle>
</svg>