<svg viewBox="163 30 927 982" preserveAspectRatio="xMinYMid meet">
    <line x1="400" y1="400" x2="400" y2="600" stroke="black"></line>
    <line x1="400" y1="400" x2="600" y2="400" stroke="black"></line>
    <line x1="600" y1="600" x2="400" y2="600" stroke="black"></line>
    <line x1="600" y1="600" x2="600" y2="400" stroke="black"></line>
    <circle cx="588.6597217308002" cy="581.6962043143133" r="10"></circle>
    <circle cx="459.13940523148824" cy="559.6458235190819" r="10"></circle>
    <circle cx="434.72721664833415" cy="471.23974622441824" r="10"></circle>
    <circle cx="564.5999550602442" cy="553.034426770496" r="10"></circle>
    <circle cx="513.4965714977988" cy="582.8273145967864" r="10"></circle>
    <circle cx="501.35360051600446" cy="443.0271305413947" r="10"></circle>
    <circle cx="491.9991739002798" cy="560.2090229699386" r="10"></circle>
    <circle cx="476.7821301114807" cy="417.9622639321187" r="10"></circle>
    <circle cx="585.5533646495118" cy="455.71637795196216" r="10"></circle>
    <circle cx="584.8398186838858" cy="533.3427945149185" r="10"></circle>
    <circle cx="421.2102955702377" cy="514.8032179825576" r="10"></circle>
    <circle cx="422.8368809876669" cy="575.2768687080564" r="10"></circle>
    <circle cx="549.2643541424868" cy="422.1712450400881" r="10"></circle>
    <circle cx="480.26727273600955" cy="488.2314017350945" r="10"></circle>
    <circle cx="442.198451278807" cy="427.21866978089264" r="10"></circle>
</svg>