<svg viewBox="163 30 927 982" preserveAspectRatio="xMinYMid meet">
    <line x1="400" y1="400" x2="400" y2="600" stroke="black"></line>
    <line x1="400" y1="400" x2="600" y2="400" stroke="black"></line>
    <line x1="600" y1="600" x2="400" y2="600" stroke="black"></line>
    <line x1="600" y1="600" x2="600" y2="400" stroke="black"></line>
    <circle cx="587.2303673359229" cy="586.2234444842668" r="10"></circle>
    <circle cx="454.6894944540979" cy="562.1658503093881" r="10"></circle>
    <circle cx="434.1735926786904" cy="492.02764168678027" r="10"></circle>
    <circle cx="536.8876728005995" cy="542.5604888060033" r="10"></circle>
    <circle cx="499.43186948652544" cy="564.06383861937" r="10"></circle>
    <circle cx="526.5559450961106" cy="422.2200165774658" r="10"></circle>
    <circle cx="488.42919846206945" cy="542.4082631899845" r="10"></circle>
    <circle cx="497.09798120733524" cy="416.1279218663905" r="10"></circle>
    <circle cx="566.1384062285142" cy="438.0716985820713" r="10"></circle>
    <circle cx="564.1751182782623" cy="533.0782228010194" r="10"></circle>
    <circle cx="418.89163867359906" cy="539.2068091236246" r="10"></circle>
    <circle cx="440.7257870497702" cy="586.4559054768362" r="10"></circle>
    <circle cx="548.7262175757077" cy="425.4304496631279" r="10"></circle>
    <circle cx="488.8025887080493" cy="493.97888126791463" r="10"></circle>
    <circle cx="459.5010185925986" cy="425.66109147063986" r="10"></circle>
</svg>