<svg viewBox="163 30 927 982" preserveAspectRatio="xMinYMid meet">
    <line x1="400" y1="400" x2="400" y2="600" stroke="black"></line>
    <line x1="400" y1="400" x2="600" y2="400" stroke="black"></line>
    <line x1="600" y1="600" x2="400" y2="600" stroke="black"></line>
    <line x1="600" y1="600" x2="600" y2="400" stroke="black"></line>
    <circle cx="585.8603970248306" cy="582.1966607504601" r="10"></circle>
    <circle cx="448.56790602623346" cy="560.4763354574919" r="10"></circle>
    <circle cx="433.9890513554758" cy="498.95694017423426" r="10"></circle>
    <circle cx="527.6502453807179" cy="539.0691761511723" r="10"></circle>
    <circle cx="494.7436354827676" cy="557.8093466268979" r="10"></circle>
    <circle cx="523.6010967446094" cy="413.95155624996283" r="10"></circle>
    <circle cx="500.13228603056456" cy="529.4665538531802" r="10"></circle>
    <circle cx="499.93538035610385" cy="413.53873844889597" r="10"></circle>
    <circle cx="571.4312160911439" cy="440.4871959637577" r="10"></circle>
    <circle cx="557.286884809721" cy="532.9900322297196" r="10"></circle>
    <circle cx="418.1187530413861" cy="547.3413395039803" r="10"></circle>
    <circle cx="438.433961191307" cy="589.9044767306181" r="10"></circle>
    <circle cx="552.0725571452053" cy="421.5302857676028" r="10"></circle>
    <circle cx="491.64769403206253" cy="495.89470777885475" r="10"></circle>
    <circle cx="465.26854103052915" cy="425.14189870055566" r="10"></circle>
</svg>