<svg viewBox="163 30 927 982" preserveAspectRatio="xMinYMid meet">
    <line x1="400" y1="400" x2="400" y2="600" stroke="black"></line>
    <line x1="400" y1="400" x2="600" y2="400" stroke="black"></line>
    <line x1="600" y1="600" x2="400" y2="600" stroke="black"></line>
    <line x1="600" y1="600" x2="600" y2="400" stroke="black"></line>
    <circle cx="584.4904267137383" cy="578.1698770166535" r="10"></circle>
    <circle cx="442.4463175983691" cy="558.7868206055958" r="10"></circle>
    <circle cx="433.8045100322612" cy="505.8862386616883" r="10"></circle>
    <circle cx="518.4128179608364" cy="535.5778634963415" r="10"></circle>
    <circle cx="490.05540147900984" cy="551.5548546344257" r="10"></circle>
    <circle cx="522.1663590072536" cy="415.67650388981406" r="10"></circle>
    <circle cx="511.8353735990596" cy="516.5248445163762" r="10"></circle>
    <circle cx="497.5943018367485" cy="411.5170782932949" r="10"></circle>
    <circle cx="579.537366318062" cy="444.8887614256879" r="10"></circle>
    <circle cx="550.3986513411799" cy="532.9018416584198" r="10"></circle>
    <circle cx="417.34586740917325" cy="555.4758698843358" r="10"></circle>
    <circle cx="436.14213533284374" cy="586.6469520156" r="10"></circle>
    <circle cx="556.2639234043929" cy="416.43613034221465" r="10"></circle>
    <circle cx="494.49279935607575" cy="497.81053428979476" r="10"></circle>
    <circle cx="471.03606346845964" cy="424.6227059304714" r="10"></circle>
</svg>