<svg viewBox="163 30 927 982" preserveAspectRatio="xMinYMid meet">
    <line x1="400" y1="400" x2="400" y2="600" stroke="black"></line>
    <line x1="400" y1="400" x2="600" y2="400" stroke="black"></line>
    <line x1="600" y1="600" x2="400" y2="600" stroke="black"></line>
    <line x1="600" y1="600" x2="600" y2="400" stroke="black"></line>
    <circle cx="583.1204564026459" cy="574.1430932828468" r="10"></circle>
    <circle cx="436.32472917050467" cy="557.0973057536996" r="10"></circle>
    <circle cx="433.6199687090466" cy="512.8155371491423" r="10"></circle>
    <circle cx="509.17539054095477" cy="532.0865508415106" r="10"></circle>
    <circle cx="485.3671674752521" cy="545.3003626419536" r="10"></circle>
    <circle cx="524.1908020846685" cy="425.68366493632317" r="10"></circle>
    <circle cx="523.5384611675547" cy="503.58313517957197" r="10"></circle>
    <circle cx="491.7940425026223" cy="410.1254809555742" r="10"></circle>
    <circle cx="587.6435165449802" cy="449.2903268876181" r="10"></circle>
    <circle cx="543.5104178726388" cy="532.8136510871201" r="10"></circle>
    <circle cx="416.5729817769604" cy="563.6104002646914" r="10"></circle>
    <circle cx="433.8503094743806" cy="583.1983807618182" r="10"></circle>
    <circle cx="560.4552896635807" cy="411.34197491682653" r="10"></circle>
    <circle cx="497.33790468008897" cy="499.7263608007348" r="10"></circle>
    <circle cx="476.8035859063902" cy="424.10351316038714" r="10"></circle>
</svg>