<svg viewBox="163 30 927 982" preserveAspectRatio="xMinYMid meet">
    <line x1="400" y1="400" x2="400" y2="600" stroke="black"></line>
    <line x1="400" y1="400" x2="600" y2="400" stroke="black"></line>
    <line x1="600" y1="600" x2="400" y2="600" stroke="black"></line>
    <line x1="600" y1="600" x2="600" y2="400" stroke="black"></line>
    <circle cx="581.7504860915535" cy="570.1163095490401" r="10"></circle>
    <circle cx="430.20314074264024" cy="555.4077909018037" r="10"></circle>
    <circle cx="433.435427385832" cy="519.7448356365963" r="10"></circle>
    <circle cx="499.9379631210732" cy="528.5952381866798" r="10"></circle>
    <circle cx="480.6789334714943" cy="539.0458706494816" r="10"></circle>
    <circle cx="526.2152451620833" cy="435.6908259828323" r="10"></circle>
    <circle cx="535.2415487360498" cy="490.64142584276766" r="10"></circle>
    <circle cx="492.7228900854024" cy="414.70882979120654" r="10"></circle>
    <circle cx="584.2503332281013" cy="453.6918923495483" r="10"></circle>
    <circle cx="536.6221844040975" cy="532.7254605158205" r="10"></circle>
    <circle cx="413.7440155049964" cy="570.2669101836168" r="10"></circle>
    <circle cx="433.6145642556685" cy="581.2278299694664" r="10"></circle>
    <circle cx="564.6466559227684" cy="413.75218050856154" r="10"></circle>
    <circle cx="500.18301000410224" cy="501.64218731167483" r="10"></circle>
    <circle cx="475.84200142741446" cy="430.0611903859526" r="10"></circle>
</svg>