<svg viewBox="163 30 927 982" preserveAspectRatio="xMinYMid meet">
    <line x1="400" y1="400" x2="400" y2="600" stroke="black"></line>
    <line x1="400" y1="400" x2="600" y2="400" stroke="black"></line>
    <line x1="600" y1="600" x2="400" y2="600" stroke="black"></line>
    <line x1="600" y1="600" x2="600" y2="400" stroke="black"></line>
    <circle cx="579.0105454693688" cy="562.0627420814267" r="10"></circle>
    <circle cx="417.95996388691134" cy="552.0287611980114" r="10"></circle>
    <circle cx="433.06634473940284" cy="533.6034326115042" r="10"></circle>
    <circle cx="489.1454503293259" cy="517.4900930622406" r="10"></circle>
    <circle cx="463.62012341596295" cy="530.6594064793146" r="10"></circle>
    <circle cx="530.2641313169133" cy="455.70514807585056" r="10"></circle>
    <circle cx="549.260015927306" cy="469.8021537840697" r="10"></circle>
    <circle cx="495.2920614420342" cy="425.06225817689705" r="10"></circle>
    <circle cx="577.4257407199991" cy="457.45087665849826" r="10"></circle>
    <circle cx="522.8457174670151" cy="532.549079373221" r="10"></circle>
    <circle cx="420.784107161489" cy="577.2035641122478" r="10"></circle>
    <circle cx="442.0132639408018" cy="583.6630942939827" r="10"></circle>
    <circle cx="573.0293884411439" cy="423.9404913593377" r="10"></circle>
    <circle cx="505.8732206521287" cy="505.47384033355496" r="10"></circle>
    <circle cx="473.20735627839133" cy="442.66135172921264" r="10"></circle>
</svg>