<svg viewBox="163 30 927 982" preserveAspectRatio="xMinYMid meet">
    <line x1="400" y1="400" x2="400" y2="600" stroke="black"></line>
    <line x1="400" y1="400" x2="600" y2="400" stroke="black"></line>
    <line x1="600" y1="600" x2="400" y2="600" stroke="black"></line>
    <line x1="600" y1="600" x2="600" y2="400" stroke="black"></line>
    <circle cx="574.9006345360917" cy="549.9823908800067" r="10"></circle>
    <circle cx="411.34971640046604" cy="548.351864354493" r="10"></circle>
    <circle cx="441.56780576597487" cy="552.999680361696" r="10"></circle>
    <circle cx="475.4831997545893" cy="499.4765879114308" r="10"></circle>
    <circle cx="435.50538971978153" cy="519.4354976882154" r="10"></circle>
    <circle cx="499.0894884514706" cy="461.0553279002838" r="10"></circle>
    <circle cx="554.4069709580554" cy="494.87949823221385" r="10"></circle>
    <circle cx="498.548511094217" cy="437.79519538579063" r="10"></circle>
    <circle cx="572.4006033962237" cy="466.3456362917147" r="10"></circle>
    <circle cx="502.18101706139146" cy="532.284507659322" r="10"></circle>
    <circle cx="434.4191344762497" cy="585.468205349712" r="10"></circle>
    <circle cx="462.768470153469" cy="589.4563304362395" r="10"></circle>
    <circle cx="572.2880066280505" cy="412.90106938574456" r="10"></circle>
    <circle cx="514.4085366241684" cy="511.22131986637515" r="10"></circle>
    <circle cx="469.25538855485667" cy="461.5615937441027" r="10"></circle>
</svg>