<svg viewBox="163 30 927 982" preserveAspectRatio="xMinYMid meet">
    <line x1="400" y1="400" x2="400" y2="600" stroke="black"></line>
    <line x1="400" y1="400" x2="600" y2="400" stroke="black"></line>
    <line x1="600" y1="600" x2="400" y2="600" stroke="black"></line>
    <line x1="600" y1="600" x2="600" y2="400" stroke="black"></line>
    <circle cx="576.4348240176886" cy="547.9292170281357" r="10"></circle>
    <circle cx="413.9825375923474" cy="546.1765335694547" r="10"></circle>
    <circle cx="470.64824817738753" cy="576.134145688966" r="10"></circle>
    <circle cx="463.1346462661698" cy="500.5842316942026" r="10"></circle>
    <circle cx="421.9809218751268" cy="504.47028596674966" r="10"></circle>
    <circle cx="483.7321801621855" cy="492.5617193387471" r="10"></circle>
    <circle cx="559.2837846066068" cy="518.2710617081689" r="10"></circle>
    <circle cx="497.3252981186217" cy="428.7107282164122" r="10"></circle>
    <circle cx="542.4531933642263" cy="504.48755604207463" r="10"></circle>
    <circle cx="474.62808318722676" cy="531.9317453741235" r="10"></circle>
    <circle cx="449.79609663496075" cy="584.2477659214261" r="10"></circle>
    <circle cx="493.24515269799537" cy="582.083861786328" r="10"></circle>
    <circle cx="559.9298705818508" cy="462.7860760028273" r="10"></circle>
    <circle cx="525.7889579202213" cy="518.8846259101354" r="10"></circle>
    <circle cx="433.531799441633" cy="460.46345097790567" r="10"></circle>
</svg>