<svg viewBox="166 29 927 982" preserveAspectRatio="xMinYMid meet">
    <line x1="400" y1="400" x2="400" y2="600" stroke="black"></line>
    <line x1="400" y1="400" x2="600" y2="400" stroke="black"></line>
    <line x1="600" y1="600" x2="400" y2="600" stroke="black"></line>
    <line x1="600" y1="600" x2="600" y2="400" stroke="black"></line>
    <circle cx="584.8585904154821" cy="580.2840489861255" r="10"></circle>
    <circle cx="419.31479158516083" cy="544.0012027844164" r="10"></circle>
    <circle cx="499.72869058880025" cy="580.7313889837638" r="10"></circle>
    <circle cx="456.51744627577654" cy="512.1166456247495" r="10"></circle>
    <circle cx="457.714396179187" cy="487.4923435809616" r="10"></circle>
    <circle cx="478.13986105037" cy="524.5339158072536" r="10"></circle>
    <circle cx="564.4923195835029" cy="526.4157721571461" r="10"></circle>
    <circle cx="496.10208514302633" cy="419.6262610470338" r="10"></circle>
    <circle cx="517.863352960211" cy="496.23629290111415" r="10"></circle>
    <circle cx="446.6587962981162" cy="538.4200135237434" r="10"></circle>
    <circle cx="465.1730587936717" cy="573.9637371925639" r="10"></circle>
    <circle cx="523.7218352425218" cy="573.6240540088954" r="10"></circle>
    <circle cx="559.6131956491847" cy="506.08110931685076" r="10"></circle>
    <circle cx="502.2662310611811" cy="560.3699353653928" r="10"></circle>
    <circle cx="435.51894204129263" cy="443.64643326339353" r="10"></circle>
</svg>