<svg viewBox="163 30 927 982" preserveAspectRatio="xMinYMid meet">
    <line x1="400" y1="400" x2="400" y2="600" stroke="black"></line>
    <line x1="400" y1="400" x2="600" y2="400" stroke="black"></line>
    <line x1="600" y1="600" x2="400" y2="600" stroke="black"></line>
    <line x1="600" y1="600" x2="600" y2="400" stroke="black"></line>
    <circle cx="588.8242158172297" cy="579.4920442786461" r="10"></circle>
    <circle cx="461.99671151520687" cy="551.2545360116814" r="10"></circle>
    <circle cx="435.09629929476336" cy="457.3811492495102" r="10"></circle>
    <circle cx="580.1703751913931" cy="554.1676446482118" r="10"></circle>
    <circle cx="522.8730395053144" cy="584.6637014182692" r="10"></circle>
    <circle cx="489.9462397357253" cy="459.60998209035887" r="10"></circle>
    <circle cx="505.55437555294316" cy="566.0018288697519" r="10"></circle>
    <circle cx="457.8440271077862" cy="416.4737164029259" r="10"></circle>
    <circle cx="581.50332973649" cy="467.4794975318894" r="10"></circle>
    <circle cx="581.3837143790317" cy="533.5191756575178" r="10"></circle>
    <circle cx="422.7560668346635" cy="498.5341572218466" r="10"></circle>
    <circle cx="420.15497351305" cy="550.3130812306324" r="10"></circle>
    <circle cx="549.6231118536729" cy="419.9984419580616" r="10"></circle>
    <circle cx="474.57706208798305" cy="484.39974871321436" r="10"></circle>
    <circle cx="430.663406402946" cy="428.25705532106116" r="10"></circle>
</svg>