<svg viewBox="163 30 927 982" preserveAspectRatio="xMinYMid meet">
    <line x1="400" y1="400" x2="400" y2="600" stroke="black"></line>
    <line x1="400" y1="400" x2="600" y2="400" stroke="black"></line>
    <line x1="600" y1="600" x2="400" y2="600" stroke="black"></line>
    <line x1="600" y1="600" x2="600" y2="400" stroke="black"></line>
    <circle cx="589.9703079581075" cy="585.72298804812" r="10"></circle>
    <circle cx="457.7107520896289" cy="563.8414672727821" r="10"></circle>
    <circle cx="434.54267532511955" cy="478.16904471187223" r="10"></circle>
    <circle cx="555.3625276403627" cy="549.543114115665" r="10"></circle>
    <circle cx="508.808337494041" cy="576.5728226043144" r="10"></circle>
    <circle cx="507.05728090614406" cy="434.7357047669126" r="10"></circle>
    <circle cx="485.22157307394815" cy="557.312620020032" r="10"></circle>
    <circle cx="486.25118161332796" cy="418.70653769671503" r="10"></circle>
    <circle cx="579.0817118425126" cy="449.83481816199856" r="10"></circle>
    <circle cx="577.9515852153447" cy="533.2546039436188" r="10"></circle>
    <circle cx="420.4374099380248" cy="522.9377483629132" r="10"></circle>
    <circle cx="434.33280823802545" cy="587.7587624467685" r="10"></circle>
    <circle cx="549.0849752868937" cy="423.2576465811013" r="10"></circle>
    <circle cx="483.11237806002276" cy="490.14722824603456" r="10"></circle>
    <circle cx="447.9659737167375" cy="426.6994770108084" r="10"></circle>
</svg>