<svg viewBox="163 30 927 982" preserveAspectRatio="xMinYMid meet">
    <line x1="400" y1="400" x2="400" y2="600" stroke="black"></line>
    <line x1="400" y1="400" x2="600" y2="400" stroke="black"></line>
    <line x1="600" y1="600" x2="400" y2="600" stroke="black"></line>
    <line x1="600" y1="600" x2="600" y2="400" stroke="black"></line>
    <circle cx="588.6003376470152" cy="589.7497717819265" r="10"></circle>
    <circle cx="459.09322152792015" cy="564.7891206179476" r="10"></circle>
    <circle cx="434.358134001905" cy="485.0983431993263" r="10"></circle>
    <circle cx="546.1251002204812" cy="546.0518014608341" r="10"></circle>
    <circle cx="504.1201034902832" cy="570.3183306118422" r="10"></circle>
    <circle cx="514.2206123528923" cy="427.177985169857" r="10"></circle>
    <circle cx="478.44397224761644" cy="554.4162170701253" r="10"></circle>
    <circle cx="494.2605820585666" cy="418.717105283885" r="10"></circle>
    <circle cx="572.6100590355135" cy="443.9532583720349" r="10"></circle>
    <circle cx="571.0633517468035" cy="533.1664133723191" r="10"></circle>
    <circle cx="419.66452430581194" cy="531.072278743269" r="10"></circle>
    <circle cx="443.0176129082334" cy="583.0073342230542" r="10"></circle>
    <circle cx="548.9055964313006" cy="424.3440481221146" r="10"></circle>
    <circle cx="485.95748338403604" cy="492.06305475697457" r="10"></circle>
    <circle cx="453.73349615466805" cy="426.1802842407241" r="10"></circle>
</svg>