<svg viewBox="163 30 927 982" preserveAspectRatio="xMinYMid meet">
    <line x1="400" y1="400" x2="400" y2="600" stroke="black"></line>
    <line x1="400" y1="400" x2="600" y2="400" stroke="black"></line>
    <line x1="600" y1="600" x2="400" y2="600" stroke="black"></line>
    <line x1="600" y1="600" x2="600" y2="400" stroke="black"></line>
    <circle cx="580.3805157804612" cy="566.0895258152334" r="10"></circle>
    <circle cx="424.0815523147758" cy="553.7182760499076" r="10"></circle>
    <circle cx="433.25088606261744" cy="526.6741341240503" r="10"></circle>
    <circle cx="493.69953385423815" cy="523.4945947791773" r="10"></circle>
    <circle cx="472.99170131469003" cy="534.4007094096812" r="10"></circle>
    <circle cx="528.2396882394983" cy="445.6979870293414" r="10"></circle>
    <circle cx="546.9446363045449" cy="477.69971650596347" r="10"></circle>
    <circle cx="494.00747576371833" cy="419.88554398405176" r="10"></circle>
    <circle cx="576.1441830011831" cy="458.0934578114785" r="10"></circle>
    <circle cx="529.7339509355563" cy="532.6372699445207" r="10"></circle>
    <circle cx="413.5200458282462" cy="573.7352371479323" r="10"></circle>
    <circle cx="437.81391409823516" cy="582.4454621317245" r="10"></circle>
    <circle cx="568.8380221819561" cy="418.8463359339496" r="10"></circle>
    <circle cx="503.02811532811546" cy="503.5580138226149" r="10"></circle>
    <circle cx="474.5246788529029" cy="436.36127105758266" r="10"></circle>
</svg>