<svg viewBox="163 30 927 982" preserveAspectRatio="xMinYMid meet">
    <line x1="400" y1="400" x2="400" y2="600" stroke="black"></line>
    <line x1="400" y1="400" x2="600" y2="400" stroke="black"></line>
    <line x1="600" y1="600" x2="400" y2="600" stroke="black"></line>
    <line x1="600" y1="600" x2="600" y2="400" stroke="black"></line>
    <circle cx="577.6405751582764" cy="558.0359583476202" r="10"></circle>
    <circle cx="411.838375459047" cy="550.3392463461153" r="10"></circle>
    <circle cx="432.88180341618823" cy="540.5327310989582" r="10"></circle>
    <circle cx="484.5913668044137" cy="511.48559134530404" r="10"></circle>
    <circle cx="454.2485455172358" cy="526.9181035489482" r="10"></circle>
    <circle cx="521.6448721597518" cy="457.98699618288936" r="10"></circle>
    <circle cx="549.0042766786481" cy="476.7304119780094" r="10"></circle>
    <circle cx="496.57664712035006" cy="430.23897236974227" r="10"></circle>
    <circle cx="588.0778804551895" cy="449.70778752915487" r="10"></circle>
    <circle cx="515.9574839984739" cy="532.4608888019213" r="10"></circle>
    <circle cx="426.73065339689424" cy="580.3261909852808" r="10"></circle>
    <circle cx="447.5301288812058" cy="585.2264265475233" r="10"></circle>
    <circle cx="577.2207547003316" cy="429.03464678472585" r="10"></circle>
    <circle cx="508.7183259761419" cy="507.38966684449497" r="10"></circle>
    <circle cx="471.89003370387985" cy="448.9614324008427" r="10"></circle>
</svg>