<svg viewBox="163 30 927 982" preserveAspectRatio="xMinYMid meet">
    <line x1="400" y1="400" x2="400" y2="600" stroke="black"></line>
    <line x1="400" y1="400" x2="600" y2="400" stroke="black"></line>
    <line x1="600" y1="600" x2="400" y2="600" stroke="black"></line>
    <line x1="600" y1="600" x2="600" y2="400" stroke="black"></line>
    <circle cx="576.2706048471841" cy="554.0091746138135" r="10"></circle>
    <circle cx="412.68277989866937" cy="548.8956970507527" r="10"></circle>
    <circle cx="434.2976951631217" cy="547.2160640298786" r="10"></circle>
    <circle cx="480.03728327950154" cy="505.48108962836744" r="10"></circle>
    <circle cx="444.8769676185087" cy="523.1768006185819" r="10"></circle>
    <circle cx="510.06852661422886" cy="458.1225593567656" r="10"></circle>
    <circle cx="551.7056238183517" cy="485.80495510511156" r="10"></circle>
    <circle cx="497.8612327986659" cy="435.4156865625875" r="10"></circle>
    <circle cx="579.6160819502973" cy="456.5233183413992" r="10"></circle>
    <circle cx="509.0692505299327" cy="532.3726982306217" r="10"></circle>
    <circle cx="430.574893936572" cy="582.8971981674964" r="10"></circle>
    <circle cx="455.14929951733745" cy="587.3413784918813" r="10"></circle>
    <circle cx="575.3775406396004" cy="419.57018226852625" r="10"></circle>
    <circle cx="511.5634313001551" cy="509.3054933554351" r="10"></circle>
    <circle cx="470.57271112936826" cy="455.2615130724727" r="10"></circle>
</svg>