<svg viewBox="163 30 927 982" preserveAspectRatio="xMinYMid meet">
    <line x1="400" y1="400" x2="400" y2="600" stroke="black"></line>
    <line x1="400" y1="400" x2="600" y2="400" stroke="black"></line>
    <line x1="600" y1="600" x2="400" y2="600" stroke="black"></line>
    <line x1="600" y1="600" x2="600" y2="400" stroke="black"></line>
    <circle cx="573.5306642249993" cy="545.9556071462" r="10"></circle>
    <circle cx="410.01665290226265" cy="547.8080316582334" r="10"></circle>
    <circle cx="448.837916368828" cy="558.7832966935136" r="10"></circle>
    <circle cx="470.9291162296771" cy="493.4720861944942" r="10"></circle>
    <circle cx="426.1338118210544" cy="515.694194757849" r="10"></circle>
    <circle cx="489.10353182816226" cy="468.6387220593499" r="10"></circle>
    <circle cx="557.108318097759" cy="503.9540413593161" r="10"></circle>
    <circle cx="498.24270785031814" cy="435.52407859344606" r="10"></circle>
    <circle cx="565.1851248421501" cy="476.1679542420302" r="10"></circle>
    <circle cx="495.2927835928503" cy="532.1963170880223" r="10"></circle>
    <circle cx="438.2633750159275" cy="588.0392125319274" r="10"></circle>
    <circle cx="470.38764078960065" cy="588.4287176194024" r="10"></circle>
    <circle cx="569.1984726165006" cy="425.37232104001527" r="10"></circle>
    <circle cx="517.2536419481817" cy="513.1371463773152" r="10"></circle>
    <circle cx="467.9380659803451" cy="467.86167441573275" r="10"></circle>
</svg>