<svg viewBox="163 30 927 982" preserveAspectRatio="xMinYMid meet">
    <line x1="400" y1="400" x2="400" y2="600" stroke="black"></line>
    <line x1="400" y1="400" x2="600" y2="400" stroke="black"></line>
    <line x1="600" y1="600" x2="400" y2="600" stroke="black"></line>
    <line x1="600" y1="600" x2="600" y2="400" stroke="black"></line>
    <circle cx="572.1606939139069" cy="541.9288234123933" r="10"></circle>
    <circle cx="411.31641059594074" cy="547.2641989619739" r="10"></circle>
    <circle cx="456.1080269716812" cy="564.566913025331" r="10"></circle>
    <circle cx="467.5278414142635" cy="492.40387484368074" r="10"></circle>
    <circle cx="416.7622339223273" cy="511.9528918274825" r="10"></circle>
    <circle cx="486.52833971809326" cy="476.5756211044938" r="10"></circle>
    <circle cx="559.8096652374626" cy="513.0285844864183" r="10"></circle>
    <circle cx="497.9369046064193" cy="433.2529618011014" r="10"></circle>
    <circle cx="557.9696462880767" cy="485.99027219234557" r="10"></circle>
    <circle cx="488.40455012430914" cy="532.1081265167227" r="10"></circle>
    <circle cx="442.10761555560526" cy="589.3897802858571" r="10"></circle>
    <circle cx="478.00681142573217" cy="586.3137656750442" r="10"></circle>
    <circle cx="566.1089386049507" cy="437.8435726942859" r="10"></circle>
    <circle cx="520.0987472721948" cy="515.0529728882553" r="10"></circle>
    <circle cx="458.0571701830957" cy="468.8719598351617" r="10"></circle>
</svg>