<svg viewBox="163 30 927 982" preserveAspectRatio="xMinYMid meet">
    <line x1="400" y1="400" x2="400" y2="600" stroke="black"></line>
    <line x1="400" y1="400" x2="600" y2="400" stroke="black"></line>
    <line x1="600" y1="600" x2="400" y2="600" stroke="black"></line>
    <line x1="600" y1="600" x2="600" y2="400" stroke="black"></line>
    <circle cx="571.7581776259813" cy="539.8405090386383" r="10"></circle>
    <circle cx="412.64947409414407" cy="546.7203662657142" r="10"></circle>
    <circle cx="463.3781375745344" cy="570.3505293571485" r="10"></circle>
    <circle cx="465.3312438402166" cy="496.4940532689416" r="10"></circle>
    <circle cx="412.6093439763997" cy="508.2115888971161" r="10"></circle>
    <circle cx="485.1302599401394" cy="484.5686702216204" r="10"></circle>
    <circle cx="561.5435583539996" cy="520.1646582534689" r="10"></circle>
    <circle cx="497.6311013625205" cy="430.9818450087568" r="10"></circle>
    <circle cx="550.7541677340031" cy="495.81259014266095" r="10"></circle>
    <circle cx="481.516316655768" cy="532.0199359454231" r="10"></circle>
    <circle cx="445.951856095283" cy="586.8187731036417" r="10"></circle>
    <circle cx="485.6259820618638" cy="584.1988137306862" r="10"></circle>
    <circle cx="563.0194045934006" cy="450.3148243485566" r="10"></circle>
    <circle cx="522.9438525962081" cy="516.9687993991954" r="10"></circle>
    <circle cx="445.7944848123644" cy="464.6677054065337" r="10"></circle>
</svg>