<svg viewBox="163 30 927 982" preserveAspectRatio="xMinYMid meet">
    <line x1="400" y1="400" x2="400" y2="600" stroke="black"></line>
    <line x1="400" y1="400" x2="600" y2="400" stroke="black"></line>
    <line x1="600" y1="600" x2="400" y2="600" stroke="black"></line>
    <line x1="600" y1="600" x2="600" y2="400" stroke="black"></line>
    <circle cx="581.1114704093959" cy="556.0179250176332" r="10"></circle>
    <circle cx="415.3156010905508" cy="545.6327008731951" r="10"></circle>
    <circle cx="477.91835878024074" cy="581.9177620207836" r="10"></circle>
    <circle cx="460.93804869212295" cy="504.67441011946346" r="10"></circle>
    <circle cx="431.35249977385394" cy="500.72898303638317" r="10"></circle>
    <circle cx="482.3341003842316" cy="500.5547684558737" r="10"></circle>
    <circle cx="560.5323130842411" cy="520.0856855860496" r="10"></circle>
    <circle cx="497.01949487472285" cy="426.43961142406755" r="10"></circle>
    <circle cx="538.2999462133586" cy="502.03542191407473" r="10"></circle>
    <circle cx="467.7398497186856" cy="531.8435548028237" r="10"></circle>
    <circle cx="453.6403371746385" cy="581.6767587392105" r="10"></circle>
    <circle cx="500.864323334127" cy="579.9689098419699" r="10"></circle>
    <circle cx="556.8403365703008" cy="475.2573276570981" r="10"></circle>
    <circle cx="520.9780338002982" cy="528.2193320253083" r="10"></circle>
    <circle cx="421.2691140709016" cy="456.2591965492776" r="10"></circle>
</svg>