<svg viewBox="163 30 927 982" preserveAspectRatio="xMinYMid meet">
    <line x1="400" y1="400" x2="400" y2="600" stroke="black"></line>
    <line x1="400" y1="400" x2="600" y2="400" stroke="black"></line>
    <line x1="600" y1="600" x2="400" y2="600" stroke="black"></line>
    <line x1="600" y1="600" x2="600" y2="400" stroke="black"></line>
    <circle cx="585.7881168011032" cy="564.1066330071305" r="10"></circle>
    <circle cx="416.6486645887541" cy="545.0888681769355" r="10"></circle>
    <circle cx="485.1884693830939" cy="587.7013783526011" r="10"></circle>
    <circle cx="458.74145111807616" cy="508.7645885447243" r="10"></circle>
    <circle cx="440.7240776725811" cy="496.98768010601674" r="10"></circle>
    <circle cx="480.93602060627774" cy="508.5478175730003" r="10"></circle>
    <circle cx="561.7808415618755" cy="521.9003094639303" r="10"></circle>
    <circle cx="496.71369163082403" cy="424.168494631723" r="10"></circle>
    <circle cx="535.5730425222735" cy="498.20112612121954" r="10"></circle>
    <circle cx="460.85161625014445" cy="531.755364231524" r="10"></circle>
    <circle cx="457.48457771431623" cy="579.105751556995" r="10"></circle>
    <circle cx="508.4834939702586" cy="577.8539578976117" r="10"></circle>
    <circle cx="553.7508025587508" cy="487.7285793113688" r="10"></circle>
    <circle cx="514.7407662205926" cy="538.9361998053364" r="10"></circle>
    <circle cx="410.9935712998298" cy="452.0549421206496" r="10"></circle>
</svg>