<svg viewBox="163 30 927 982" preserveAspectRatio="xMinYMid meet">
    <line x1="400" y1="400" x2="400" y2="600" stroke="black"></line>
    <line x1="400" y1="400" x2="600" y2="400" stroke="black"></line>
    <line x1="600" y1="600" x2="400" y2="600" stroke="black"></line>
    <line x1="600" y1="600" x2="600" y2="400" stroke="black"></line>
    <circle cx="589.5352368071894" cy="572.1953409966281" r="10"></circle>
    <circle cx="417.9817280869575" cy="544.5450354806759" r="10"></circle>
    <circle cx="492.45857998594715" cy="586.5150053155812" r="10"></circle>
    <circle cx="457.2939062354276" cy="511.83286660004495" r="10"></circle>
    <circle cx="449.45366262312047" cy="492.5091958640461" r="10"></circle>
    <circle cx="479.5379408283238" cy="516.540866690127" r="10"></circle>
    <circle cx="563.0293700395099" cy="523.714933341811" r="10"></circle>
    <circle cx="496.40788838692515" cy="421.8973778393784" r="10"></circle>
    <circle cx="527.1258007084831" cy="497.0290153871437" r="10"></circle>
    <circle cx="453.85632303839265" cy="533.4262553417688" r="10"></circle>
    <circle cx="461.32881825399403" cy="576.5347443747794" r="10"></circle>
    <circle cx="516.1026646063902" cy="575.7390059532536" r="10"></circle>
    <circle cx="556.3816066699062" cy="497.53764590686023" r="10"></circle>
    <circle cx="508.50349864088673" cy="549.6530675853647" r="10"></circle>
    <circle cx="423.2562566705614" cy="447.85068769202155" r="10"></circle>
</svg>